<svg id="Layer_1" data-name="Layer 1" xmlns="http://www.w3.org/2000/svg" xmlns:xlink="http://www.w3.org/1999/xlink" viewBox="0 0 584.7 477.7"><defs><style>.cls-1,.cls-34,.cls-4,.cls-40,.cls-41{fill:none;}.cls-2{clip-path:url(#clip-path);}.cls-3,.cls-5{fill:#4f6cd3;}.cls-3{opacity:0.2;}.cls-4,.cls-40,.cls-41{stroke:#4f6cd3;}.cls-4,.cls-41{stroke-linecap:round;stroke-linejoin:round;}.cls-4,.cls-40{stroke-width:3.35px;}.cls-6{fill:#162f75;}.cls-7{fill:#fff;}.cls-8{fill:url(#linear-gradient);}.cls-9{fill:#28429e;}.cls-10{fill:url(#linear-gradient-2);}.cls-11{fill:url(#linear-gradient-3);}.cls-12{fill:url(#linear-gradient-4);}.cls-13{fill:url(#linear-gradient-5);}.cls-14{fill:url(#linear-gradient-6);}.cls-15{fill:url(#linear-gradient-7);}.cls-16{fill:#fdfeff;}.cls-17{fill:url(#linear-gradient-8);}.cls-18{fill:url(#linear-gradient-9);}.cls-19{fill:url(#linear-gradient-10);}.cls-20{fill:#fedd00;}.cls-21{fill:url(#radial-gradient);}.cls-22{fill:url(#radial-gradient-2);}.cls-23{fill:url(#linear-gradient-11);}.cls-24{fill:url(#linear-gradient-12);}.cls-25{fill:url(#linear-gradient-13);}.cls-26{fill:url(#linear-gradient-14);}.cls-27{fill:url(#linear-gradient-15);}.cls-28{fill:url(#linear-gradient-16);}.cls-29{fill:#97d9f7;}.cls-30{fill:url(#linear-gradient-17);}.cls-31{fill:url(#linear-gradient-18);}.cls-32{fill:url(#linear-gradient-19);}.cls-33{fill:url(#linear-gradient-20);}.cls-34{stroke:#97d9f7;stroke-width:0.32px;}.cls-34,.cls-40{stroke-miterlimit:10;}.cls-35{fill:#d85ba9;}.cls-36{fill:#e869b1;}.cls-37{fill:#f478b9;}.cls-38{fill:#ff88c1;}.cls-39{fill:#ee5096;}.cls-41{stroke-width:7.44px;}</style><clipPath id="clip-path"><rect class="cls-1" x="-0.2" y="-0.6" width="583.9" height="476.9"/></clipPath><linearGradient id="linear-gradient" x1="168.15" y1="178.92" x2="180.92" y2="152.92" gradientUnits="userSpaceOnUse"><stop offset="0" stop-color="#a8e0f8" stop-opacity="0.4"/><stop offset="0.12" stop-color="#aae1f8" stop-opacity="0.42"/><stop offset="0.3" stop-color="#afe3f9" stop-opacity="0.49"/><stop offset="0.5" stop-color="#b7e7fa" stop-opacity="0.61"/><stop offset="0.73" stop-color="#c3ecfc" stop-opacity="0.77"/><stop offset="0.96" stop-color="#d2f3ff" stop-opacity="0.97"/><stop offset="1" stop-color="#d4f4ff"/></linearGradient><linearGradient id="linear-gradient-2" x1="250.32" y1="63.23" x2="250.32" y2="224.36" gradientUnits="userSpaceOnUse"><stop offset="0" stop-color="#fff"/><stop offset="1" stop-color="#fff" stop-opacity="0"/></linearGradient><linearGradient id="linear-gradient-3" x1="285.27" y1="63.23" x2="285.27" y2="224.36" xlink:href="#linear-gradient-2"/><linearGradient id="linear-gradient-4" x1="320.23" y1="63.23" x2="320.23" y2="224.36" xlink:href="#linear-gradient-2"/><linearGradient id="linear-gradient-5" x1="250.32" y1="107.67" x2="250.32" y2="161.69" xlink:href="#linear-gradient-2"/><linearGradient id="linear-gradient-6" x1="285.27" y1="107.67" x2="285.27" y2="161.69" xlink:href="#linear-gradient-2"/><linearGradient id="linear-gradient-7" x1="320.23" y1="107.67" x2="320.23" y2="161.69" xlink:href="#linear-gradient-2"/><linearGradient id="linear-gradient-8" x1="331.5" y1="76.61" x2="329.18" y2="188.2" xlink:href="#linear-gradient-2"/><linearGradient id="linear-gradient-9" x1="359.1" y1="77.39" x2="356.78" y2="188.98" xlink:href="#linear-gradient-2"/><linearGradient id="linear-gradient-10" x1="343.84" y1="104.45" x2="343.08" y2="141.04" xlink:href="#linear-gradient-2"/><radialGradient id="radial-gradient" cx="299.99" cy="1140.86" r="2.83" gradientTransform="translate(0 -2861.1) scale(1 2.63)" gradientUnits="userSpaceOnUse"><stop offset="0" stop-color="#fff"/><stop offset="0.87" stop-color="#fff" stop-opacity="0"/></radialGradient><radialGradient id="radial-gradient-2" cx="199.02" cy="1234.73" r="2.83" gradientTransform="translate(0 -2995.4) scale(1 2.63)" xlink:href="#radial-gradient"/><linearGradient id="linear-gradient-11" x1="230.15" y1="167.94" x2="230.15" y2="329.07" xlink:href="#linear-gradient-2"/><linearGradient id="linear-gradient-12" x1="279.97" y1="167.94" x2="279.97" y2="329.07" xlink:href="#linear-gradient-2"/><linearGradient id="linear-gradient-13" x1="329.8" y1="167.94" x2="329.8" y2="329.07" xlink:href="#linear-gradient-2"/><linearGradient id="linear-gradient-14" x1="230.15" y1="212.38" x2="230.15" y2="266.4" xlink:href="#linear-gradient-2"/><linearGradient id="linear-gradient-15" x1="279.97" y1="212.38" x2="279.97" y2="266.4" xlink:href="#linear-gradient-2"/><linearGradient id="linear-gradient-16" x1="329.8" y1="212.38" x2="329.8" y2="266.4" xlink:href="#linear-gradient-2"/><linearGradient id="linear-gradient-17" x1="322.55" y1="203.94" x2="322.55" y2="271.8" xlink:href="#linear-gradient-2"/><linearGradient id="linear-gradient-18" x1="303.28" y1="186.08" x2="300.64" y2="312.97" xlink:href="#linear-gradient-2"/><linearGradient id="linear-gradient-19" x1="324.39" y1="186.52" x2="321.74" y2="313.41" xlink:href="#linear-gradient-2"/><linearGradient id="linear-gradient-20" x1="345.75" y1="186.97" x2="343.11" y2="313.86" xlink:href="#linear-gradient-2"/></defs><title>property management illustration-36</title><g class="cls-2"><path class="cls-3" d="M70.3,148.5a27,27,0,0,0-25.1,17.1,15,15,0,0,0-11.5-5.3,15.2,15.2,0,0,0-15.2,15.2H97.2A27,27,0,0,0,70.3,148.5Z"/><path class="cls-3" d="M546,2.7a37.5,37.5,0,0,0-35,23.8,21.2,21.2,0,0,0-37.3,13.8h110A37.6,37.6,0,0,0,546,2.7Z"/><circle class="cls-3" cx="302" cy="435" r="26.1"/><path class="cls-4" d="M425.8,287.3V42.2a20.4,20.4,0,0,0-20.4-20.5H185.9a20.5,20.5,0,0,0-20.5,20.5v411a20.5,20.5,0,0,0,20.5,20.5H405.4a20.4,20.4,0,0,0,20.4-20.5l.3-59.8H326.4"/><rect class="cls-5" x="388.9" y="41.7" width="9.7" height="153.72" transform="translate(787.5 237.2) rotate(-180)"/><rect class="cls-5" x="385.9" y="47.6" width="66.9" height="6.87" transform="translate(838.6 102.1) rotate(-180)"/><rect class="cls-5" x="435.3" y="55.7" width="9.2" height="1.94" transform="translate(88.8 327.7) rotate(-45)"/><rect class="cls-5" x="409.7" y="52.1" width="1.9" height="9.17" transform="translate(80.2 307) rotate(-45)"/><rect class="cls-6" x="404.7" y="59" width="41.2" height="29.77" rx="2.4" transform="translate(850.6 147.8) rotate(-180)"/><path class="cls-7" d="M417.8,76.1l.5-.5v7.1h14V75.6l.5.5,2.6-2.5-10.1-8.5-10.1,8.5Z"/><circle class="cls-6" cx="393.4" cy="51.2" r="1.2"/><circle class="cls-5" cx="407.1" cy="62.2" r="1.2"/><circle class="cls-5" cx="443.4" cy="62.2" r="1.2"/><circle class="cls-5" cx="407.1" cy="86.5" r="1.2"/><circle class="cls-5" cx="443.4" cy="86.5" r="1.2"/><rect class="cls-6" x="424.6" y="77.1" width="4.5" height="5.85"/><rect class="cls-8" x="133.3" y="128.3" width="95.7" height="48.54" rx="9.9"/><path class="cls-9" d="M169.7,148.3H155.4a1.5,1.5,0,1,1,0-2.9h14.3a1.4,1.4,0,0,1,1.4,1.4A1.5,1.5,0,0,1,169.7,148.3Z"/><path class="cls-9" d="M169.7,143.4H155.4a1.5,1.5,0,0,1-1.5-1.4,1.5,1.5,0,0,1,1.5-1.5h14.3a1.5,1.5,0,0,1,1.4,1.5A1.4,1.4,0,0,1,169.7,143.4Z"/><path class="cls-9" d="M165.7,164.6a1.4,1.4,0,0,1-1-.4l-9.7-8.5a1.6,1.6,0,0,1-.4-1.6,1.5,1.5,0,0,1,1.4-1h3.1a4.9,4.9,0,1,0,0-9.7,1.4,1.4,0,0,1-1.4-1.4,1.5,1.5,0,0,1,1.4-1.5,7.8,7.8,0,0,1,.6,15.5l6.9,6.1a1.4,1.4,0,0,1,.2,2A1.6,1.6,0,0,1,165.7,164.6Z"/><path class="cls-9" d="M188.3,148.3H173.9a1.5,1.5,0,0,1-1.4-1.5,1.4,1.4,0,0,1,1.4-1.4h14.4a1.5,1.5,0,0,1,1.4,1.4A1.5,1.5,0,0,1,188.3,148.3Z"/><path class="cls-9" d="M188.3,143.4H173.9a1.4,1.4,0,0,1-1.4-1.4,1.5,1.5,0,0,1,1.4-1.5h14.4a1.5,1.5,0,0,1,1.4,1.5A1.4,1.4,0,0,1,188.3,143.4Z"/><path class="cls-9" d="M184.2,164.6a1.2,1.2,0,0,1-.9-.4l-9.7-8.5a1.4,1.4,0,0,1-.4-1.6,1.4,1.4,0,0,1,1.3-1h3.2a4.9,4.9,0,0,0,0-9.7,1.5,1.5,0,0,1-1.5-1.4,1.5,1.5,0,0,1,1.5-1.5,7.9,7.9,0,0,1,7.7,7.8,7.8,7.8,0,0,1-7.1,7.7l6.9,6.1a1.4,1.4,0,0,1,.1,2A1.6,1.6,0,0,1,184.2,164.6Z"/><path class="cls-9" d="M206.8,148.3H192.5a1.5,1.5,0,1,1,0-2.9h14.3a1.4,1.4,0,0,1,1.4,1.4A1.5,1.5,0,0,1,206.8,148.3Z"/><path class="cls-9" d="M206.8,143.4H192.5A1.5,1.5,0,0,1,191,142a1.5,1.5,0,0,1,1.5-1.5h14.3a1.5,1.5,0,0,1,1.4,1.5A1.4,1.4,0,0,1,206.8,143.4Z"/><path class="cls-9" d="M202.8,164.6a1.4,1.4,0,0,1-1-.4l-9.7-8.5a1.6,1.6,0,0,1-.4-1.6,1.5,1.5,0,0,1,1.4-1h3.1a4.9,4.9,0,1,0,0-9.7,1.4,1.4,0,0,1-1.4-1.4,1.5,1.5,0,0,1,1.4-1.5,7.8,7.8,0,0,1,.6,15.5l6.9,6.1a1.4,1.4,0,0,1,.2,2A1.6,1.6,0,0,1,202.8,164.6Z"/><rect class="cls-9" x="216.5" y="119.8" width="137.5" height="81.2"/><rect class="cls-6" x="231.3" y="135.8" width="107.8" height="65.21"/><rect class="cls-10" x="234" y="155.4" width="32.7" height="42.68"/><rect class="cls-11" x="268.9" y="155.4" width="32.7" height="42.68"/><rect class="cls-12" x="303.9" y="155.4" width="32.7" height="42.68"/><rect class="cls-13" x="234" y="138.6" width="32.7" height="14.31"/><rect class="cls-14" x="268.9" y="138.6" width="32.7" height="14.31"/><rect class="cls-15" x="303.9" y="138.6" width="32.7" height="14.31"/><path class="cls-16" d="M401.5,309.8H257.2a1.3,1.3,0,0,1-1.3-1.3V53.4a1.4,1.4,0,0,1,1.7-1.2l144.3,51.2a1.4,1.4,0,0,1,.9,1.2V308.5A1.3,1.3,0,0,1,401.5,309.8Z"/><polygon class="cls-9" points="391.7 309.7 267 309.7 267 66.6 391.7 113.4 391.7 309.7"/><polygon class="cls-5" points="391.7 309.7 284.6 309.7 284.6 101.7 391.7 142.9 391.7 309.7"/><rect class="cls-9" x="314.6" y="124.1" width="57.7" height="68.03"/><rect class="cls-17" x="317.2" y="143.8" width="24.8" height="45.73"/><rect class="cls-18" x="344.8" y="143.8" width="24.8" height="45.73"/><rect class="cls-19" x="317.2" y="126.9" width="52" height="14.08"/><rect class="cls-20" x="298.7" y="132" width="2.6" height="6.66" rx="1.3"/><rect class="cls-16" x="298.9" y="134.2" width="2.1" height="2.91" rx="1.1"/><ellipse class="cls-21" cx="300" cy="135.1" rx="2.7" ry="7.8"/><rect class="cls-6" x="267.1" y="171.7" width="112.5" height="2.95"/><rect class="cls-6" x="273.8" y="174.1" width="1.2" height="21.84"/><rect class="cls-6" x="280.3" y="174.1" width="1.2" height="21.84"/><rect class="cls-6" x="286.8" y="174.1" width="1.2" height="21.84"/><rect class="cls-6" x="293.3" y="174.1" width="1.2" height="21.84"/><rect class="cls-6" x="299.8" y="174.1" width="1.2" height="21.84"/><rect class="cls-6" x="306.3" y="174.1" width="1.2" height="21.84"/><rect class="cls-6" x="312.8" y="174.1" width="1.2" height="21.84"/><rect class="cls-6" x="319.3" y="174.1" width="1.2" height="21.84"/><rect class="cls-6" x="325.8" y="174.1" width="1.2" height="21.84"/><rect class="cls-6" x="332.3" y="174.1" width="1.2" height="21.84"/><rect class="cls-6" x="338.8" y="174.1" width="1.2" height="21.84"/><rect class="cls-6" x="345.3" y="174.1" width="1.2" height="21.84"/><rect class="cls-6" x="351.8" y="174.1" width="1.2" height="21.84"/><rect class="cls-6" x="358.2" y="174.1" width="1.2" height="21.84"/><rect class="cls-6" x="364.7" y="174.1" width="1.2" height="21.84"/><rect class="cls-6" x="371.2" y="174.1" width="1.2" height="21.84"/><rect class="cls-6" x="377.7" y="174.1" width="1.2" height="21.84"/><rect class="cls-6" x="266.1" y="191.9" width="119.4" height="118.21"/><rect class="cls-5" x="190.4" y="205.3" width="179.1" height="105.23"/><rect class="cls-9" x="190.4" y="205.3" width="179.1" height="62.76"/><rect class="cls-20" x="197.7" y="244.2" width="2.6" height="6.66" rx="1.3"/><rect class="cls-16" x="198" y="246.4" width="2.1" height="2.91" rx="1.1"/><ellipse class="cls-22" cx="199" cy="247.3" rx="2.7" ry="7.8"/><rect class="cls-6" x="203.7" y="240.5" width="152.4" height="65.21"/><rect class="cls-23" x="206.4" y="260.1" width="47.6" height="42.68"/><rect class="cls-24" x="256.2" y="260.1" width="47.6" height="42.68"/><rect class="cls-25" x="306" y="260.1" width="47.6" height="42.68"/><rect class="cls-26" x="206.4" y="243.3" width="47.6" height="14.31"/><rect class="cls-27" x="256.2" y="243.3" width="47.6" height="14.31"/><rect class="cls-28" x="306" y="243.3" width="47.6" height="14.31"/><path class="cls-16" d="M184.4,201.9V322a1.3,1.3,0,0,0,1.3,1.3h7.2a1.3,1.3,0,0,0,1.3-1.3V213.5a1.2,1.2,0,0,1,1.2-1.3H361.8a1.3,1.3,0,0,1,1.3,1.3V323.3h9.1a1.3,1.3,0,0,0,1.3-1.3V201.9a1.3,1.3,0,0,0-1.3-1.3H185.7A1.3,1.3,0,0,0,184.4,201.9Z"/><rect class="cls-29" x="282" y="212.4" width="81.1" height="110.88"/><rect class="cls-9" x="289.6" y="239.9" width="65.9" height="77.66"/><rect class="cls-30" x="292.1" y="242.8" width="61" height="17.97"/><rect class="cls-31" x="291.8" y="262.3" width="18.8" height="52.2"/><rect class="cls-32" x="312.9" y="262.3" width="18.8" height="52.2"/><rect class="cls-33" x="334.3" y="262.3" width="18.8" height="52.2"/><polygon class="cls-5" points="119.4 344.2 192 426.2 56.1 549.2 -26.5 450.8 119.4 344.2"/><circle class="cls-6" cx="41.6" cy="403.5" r="13.2"/><circle class="cls-6" cx="71.1" cy="382" r="13.2"/><line class="cls-34" x1="44.9" y1="535.8" x2="178.5" y2="417"/><line class="cls-34" x1="28.4" y1="516.1" x2="161.5" y2="401.4"/><line class="cls-34" x1="11" y1="495.1" x2="145.1" y2="384.2"/><line class="cls-34" x1="-9.1" y1="471.5" x2="129.1" y2="364.4"/><path class="cls-9" d="M158.9,382.3c19.9,22.6,34.6,42.3,32.8,43.9s-20.1-13-40-35.6-34.1-44.8-32.3-46.5S138.9,359.6,158.9,382.3Z"/><path class="cls-6" d="M157.5,383.5c19.1,21.8,33.6,40.3,32.3,41.4s-18-13.5-37.1-35.2-33.5-42.4-32.2-43.5S138.4,361.8,157.5,383.5Z"/><path class="cls-35" d="M301.9,367.6l52.9-21,30-17.6s-.6-5.1-8.9-4.1-74,25.5-74,25.5Z"/><polygon class="cls-36" points="301.9 367.6 344.3 347.2 373.3 324.2 307.6 339.2 301.9 367.6"/><polygon class="cls-37" points="305.1 348.2 353.6 335.7 397 312.1 312.7 328.9 305.1 348.2"/><path class="cls-38" d="M406.4,296.4c-7.7-2.3-72.8,6.2-72.8,6.2l-28.7,2.8a11.3,11.3,0,0,0,.9-2.8c.7-4.6-.8-10.8-.8-10.8s-69.7,3.1-78.2,3.1-29.4-.8-46.5,11.6S149,341.7,149,341.7l-16.8,18.4h0c7.3,15.9,25.3,38.1,39.6,48.3l3.2,2.2,19.1-17s82.7-23.4,105.1-24.9a5.1,5.1,0,0,0,4.5-3.9l9-35.9,55.8-9.3L417.3,308S414.2,298.7,406.4,296.4Z"/><path class="cls-39" d="M304.9,305.4a17.3,17.3,0,0,1-3.5,3.1,11.3,11.3,0,0,1-2.1,1.2l-2.4.7-9.3,1.7c-6.3,1.1-12.5,2-18.8,2.9s-12.5,1.7-18.8,2.4l-4.7.5-2.3.2-2.4.3a13.8,13.8,0,0,0-4.2,1.7,13.2,13.2,0,0,0-3.5,3.2,12.8,12.8,0,0,1,7.5-5.8l9.4-1.6,18.8-2.8,18.8-2.5,9.3-1.1C299.9,309.3,302.5,307.4,304.9,305.4Z"/><path class="cls-7" d="M288.8,293.7l14.7-.9a18.2,18.2,0,0,1,.2,8.2s-9.5,2.3-12.7.2S288.8,293.7,288.8,293.7Z"/><path class="cls-7" d="M416.7,308.5l-13,3s-1.6-3.4-.7-5.3,6.8-2,9.5-2.2a2.2,2.2,0,0,1,1.9,1Z"/><path class="cls-7" d="M384.5,329.2l-6.6,3.9a2.6,2.6,0,0,1-.1-3c.9-1.1,3.7-2.2,4.7-2.6a.6.6,0,0,1,.7.2Z"/><circle class="cls-40" cx="295.3" cy="435" r="26.1"/><path class="cls-41" d="M257.7,37.3h76.1"/><path class="cls-7" d="M201.4,88.9h0a9.7,9.7,0,0,1-9.7,9.7h.5a9.2,9.2,0,0,1,9.2,9.2h0a9.2,9.2,0,0,1,9.2-9.2h.4a9.6,9.6,0,0,1-9.6-9.6Z"/><path class="cls-7" d="M346.7,28h0A13.8,13.8,0,0,1,333,41.7h.7a13,13,0,0,1,13,12.9h0a12.9,12.9,0,0,1,12.9-12.9h.6a13.5,13.5,0,0,1-13.5-13.6Z"/></g><line class="cls-4" x1="1.4" y1="474.6" x2="515.7" y2="474.6"/></svg>